Coordinates
nRows=11
nColumns=24

# SIMM Motion File Header:
name Coordinates
datacolumns 24
datarows 11
otherdata 1
range 0.77300000000000002000 0.78300000000000003000

Units are S.I. units (second, meters, Newtons, ...)
Angles are in degrees.

endheader
time	pelvis_tx	pelvis_ty	pelvis_tz	pelvis_tilt	pelvis_list	pelvis_rotation	hip_flexion_r	hip_adduction_r	hip_rotation_r	knee_angle_r	ankle_angle_r	subtalar_angle_r	mtp_angle_r	hip_flexion_l	hip_adduction_l	hip_rotation_l	knee_angle_l	ankle_angle_l	subtalar_angle_l	mtp_angle_l	lumbar_extension	lumbar_bending	lumbar_rotation
      0.77300000000000002000	      0.39472843392356466000	      0.82887680828511945000	     -0.29419243364837483000	     -4.15144982270226940000	     -0.04812932932791839200	     -0.88862161250565108000	     35.12201310459281000000	     -0.81894074208790724000	      4.34020647147799200000	    -33.70817104322232200000	     -0.54330741020871032000	     -0.00000000000000033199	      0.00000000000000448083	     -1.56332327010452410000	      5.68861678359870290000	     -0.83093710054262193000	     -0.35069908918068077000	      5.02466662437735770000	     -0.00000000000005081928	      0.00000000000019551679	      7.16087594768609570000	     -1.68051163026512170000	      8.52900312540336540000
      0.77400000000000002000	      0.39509395021765620000	      0.82877683954127135000	     -0.29419725993246953000	     -4.16117612875963960000	     -0.05085868678368494300	     -0.86729149651610593000	     35.11539449699374400000	     -0.80679586734686193000	      4.32667123988367220000	    -33.42589433296635100000	     -0.60211678149066772000	     -0.00000000000000031562	      0.00000000000000444813	     -1.57699513955258160000	      5.68766820487230880000	     -0.82384791038787708000	     -0.36297032150191921000	      5.05227282085657410000	     -0.00000000000005086244	      0.00000000000019583734	      7.17177143070821280000	     -1.68623521400538890000	      8.52218421044208620000
      0.77500000000000002000	      0.39546039609435951000	      0.82867654552889913000	     -0.29420201301158949000	     -4.17083048736815170000	     -0.05350872298747524200	     -0.84588855464209201000	     35.10799584992817300000	     -0.79484826858733448000	      4.31340356249210370000	    -33.14322518575094300000	     -0.66119950135446803000	     -0.00000000000000030111	      0.00000000000000441690	     -1.59086588747107130000	      5.68677063431553800000	     -0.81658501062168831000	     -0.37516650994295386000	      5.07997878209040010000	     -0.00000000000005091372	      0.00000000000019618369	      7.18264723707661280000	     -1.69206981992146630000	      8.51535517520813910000
      0.77600000000000002000	      0.39582777502100425000	      0.82857593273786201000	     -0.29420669654297410000	     -4.18041224769672670000	     -0.05607926496268043900	     -0.82441304605532928000	     35.09982103605590700000	     -0.78309839017800797000	      4.30040807667476430000	    -32.86018204786397900000	     -0.72054229766685107000	     -0.00000000000000028726	      0.00000000000000438670	     -1.60493463809365980000	      5.68592308212324490000	     -0.80915187710011749000	     -0.38728911538208205000	      5.10778737915358420000	     -0.00000000000005096785	      0.00000000000019654257	      7.19350287177355160000	     -1.69801478721605670000	      8.50851921106865210000
      0.77700000000000002000	      0.39619609023696217000	      0.82847500760793591000	     -0.29421131417907975000	     -4.18992084426074030000	     -0.05856999640183441900	     -0.80286533733765431000	     35.09087426072643000000	     -0.77154683543471347000	      4.28768959121235490000	    -32.57678358736603000000	     -0.78013180147277861000	     -0.00000000000000027533	      0.00000000000000435883	     -1.61920030950538620000	      5.68512471644348770000	     -0.80155222020255223000	     -0.39933978163387901000	      5.13570125321853420000	     -0.00000000000005100755	      0.00000000000019683996	      7.20433793402977950000	     -1.70406957433577060000	      8.50167964370172950000
      0.77800000000000002000	      0.39656534476350458000	      0.82837377653757283000	     -0.29421586957172435000	     -4.19935579668837460000	     -0.06098045906332021100	     -0.78124589978693271000	     35.08116005893231200000	     -0.76019436814393238000	      4.27525307875417230000	    -32.29304869516416700000	     -0.83995454908665945000	     -0.00000000000000026318	      0.00000000000000433097	     -1.63366161787491060000	      5.68437486330420770000	     -0.79378997973927468000	     -0.41132033148973907000	      5.16372281191471670000	     -0.00000000000005105820	      0.00000000000019714322	      7.21515211902337670000	     -1.71023375845981680000	      8.49483993500504120000
      0.77900000000000003000	      0.39693554141805332000	      0.82827224589476833000	     -0.29422036637905929000	     -4.20871670948693750000	     -0.06331005466252992400	     -0.75955530654704284000	     35.07068329185740700000	     -0.74904191405527709000	      4.26310366778334430000	    -32.00899648649242100000	     -0.89999698399818173000	     -0.00000000000000025159	      0.00000000000000430318	     -1.64831708192851780000	      5.68367300626912190000	     -0.78586931932647008000	     -0.42323276283436101000	      5.19185422692278740000	     -0.00000000000005111049	      0.00000000000019745041	      7.22594522085841450000	     -1.71650703434439800000	      8.48800368910286100000
      0.78000000000000003000	      0.39730668282869341000	      0.82817042202805524000	     -0.29422480827273617000	     -4.21800327182421690000	     -0.06555804686090595200	     -0.73779422970339270000	     35.05944914341414200000	     -0.73809056231390002000	      4.25124663451535770000	    -31.72464630240432700000	     -0.96024545876828360000	     -0.00000000000000024070	      0.00000000000000427412	     -1.66316502738447110000	      5.68301878594801570000	     -0.77779462085891293000	     -0.43507924497229800000	      5.22009742939177370000	     -0.00000000000005115915	      0.00000000000019773865	      7.23671713564156520000	     -1.72288921306055090000	      8.48117465858677910000
      0.78100000000000003000	      0.39767877144866665000	      0.82806831127749847000	     -0.29422919894513966000	     -4.22721525730956670000	     -0.06772356325551018300	     -0.71596343737631563000	     35.04746311678295000000	     -0.72734156689137186000	      4.23968739479497180000	    -31.44001771126136200000	     -1.02068623692482660000	     -0.00000000000000023151	      0.00000000000000424403	     -1.67820359138683470000	      5.68241199950471550000	     -0.76957047898353126000	     -0.44686211495509071000	      5.24845410534191090000	     -0.00000000000005122891	      0.00000000000019807070	      7.24746786456102750000	     -1.72938022072908470000	      8.47435675077055000000
      0.78200000000000003000	      0.39805180957084418000	      0.82796591998568903000	     -0.29423354211668895000	     -4.23635252377459630000	     -0.06980559736826805200	     -0.69406379081243730000	     35.03473103095385000000	     -0.71679634801497782000	      4.22843149599176730000	    -31.15513051021719800000	     -1.08130549485851550000	     -0.00000000000000022515	      0.00000000000000421380	     -1.69343072693906270000	      5.68185260016346570000	     -0.76120169557318185000	     -0.45858387390747340000	      5.27692569106783620000	     -0.00000000000005128248	      0.00000000000019834843	      7.25819751696711270000	     -1.73598009725304770000	      8.46755403395784610000
      0.78300000000000003000	      0.39842579934217853000	      0.82786325450873766000	     -0.29423784154321020000	     -4.24541501305345830000	     -0.07180301063479317700	     -0.67209624147395841000	     35.02125901727007600000	     -0.70645649359496188000	      4.21748460889423620000	    -30.87000472669736700000	     -1.14208932371907830000	     -0.00000000000000021843	      0.00000000000000418312	     -1.70884420733736420000	      5.68134069671339500000	     -0.75269327420068288000	     -0.47024718335265769000	      5.30551336854189070000	     -0.00000000000005133141	      0.00000000000019860924	      7.26890631345446710000	     -1.74268899504742560000	      8.46077074372308680000
